<svg xmlns="http://www.w3.org/2000/svg" version="1.1" id="support-pool" x="0px" y="0px"  viewBox="393.167 75.797 100.0 135.0" enable-background="new 388.167 85.797 100 100" xml:space="preserve">

	<circle style="fill:#93CC76;" cx="430.363" cy="96.646" r="5.797"/>
	<path style="fill:#93CC76;" d="M441.426,125.671l-4.121-18.531c-0.522-2.344-2.844-3.822-5.189-3.3l-0.707,0.157c-2.344,0.521-3.82,2.844-3.299,5.188      l4.12,18.532c0.522,2.344,2.845,3.82,5.189,3.3l0.708-0.157C440.471,130.339,441.948,128.015,441.426,125.671z"/>
	<path style="fill:#93CC76;" d="M450.849,123.103h-14.201c-2.201,0-3.985,1.784-3.985,3.986c0,2.201,1.784,3.985,3.985,3.985h14.201      c2.201,0,3.985-1.784,3.985-3.985C454.834,124.887,453.052,123.103,450.849,123.103z"/>
	<path style="fill:#93CC76;" d="M451.864,123.972c-1.641,0-2.971,1.33-2.971,2.971v17.826c0,1.64,1.33,2.971,2.971,2.971s2.97-1.331,2.97-2.971v-17.826      C454.834,125.302,453.505,123.972,451.864,123.972z"/>
	<path style="fill:#93CC76;" d="M431.214,132.31l-3.996-17.509c-0.457-2.004-1.92-3.379-3.265-3.071c-1.347,0.306-2.066,2.182-1.609,4.185l3.998,17.509      c0.457,2.005,1.918,3.379,3.264,3.072C430.952,136.189,431.673,134.314,431.214,132.31z"/>
	<path style="fill:#93CC76;" d="M445.053,132.378h-15.361c-1.48,0-2.682,0.941-2.682,2.102s1.201,2.101,2.682,2.101h15.361      c1.48,0,2.681-0.94,2.681-2.101S446.533,132.378,445.053,132.378z"/>
	<polygon style="fill:#93CC76;" points="427.773,182.336 424.299,182.336 432.955,134.932 436.43,135.575   "/>
	<rect style="fill:#93CC76;" x="431.942" y="148.342" width="25.837" height="3.534"/>
	<rect style="fill:#93CC76;" x="422.09" y="154.453" width="7.773" height="2.119"/>
	<rect style="fill:#93CC76;" x="420.676" y="164.936" width="7.774" height="2.121"/>
	<rect style="fill:#93CC76;" x="418.557" y="174.947" width="7.774" height="2.12"/>
	<text x="410.167" y="203" font-size="2" font-weight="bold" font-family="Helvetica Neue, Helvetica, Arial-Unicode, Arial, Sans-serif" fill="#000000">Created by Kevin Zittle</text>
	<text x="410.167" y="205" font-size="2" font-weight="bold" font-family="Helvetica Neue, Helvetica, Arial-Unicode, Arial, Sans-serif" fill="#000000">from the Noun Project</text>

</svg>