<svg xmlns="http://www.w3.org/2000/svg" viewBox="393.167 75.797 100.0 135.0" enable-background="new 388.167 85.797 100 100"><circle cx="430.363" cy="96.646" r="5.797" fill="#93CC76"/><path d="M441.426 125.67l-4.12-18.53c-.523-2.344-2.845-3.822-5.19-3.3l-.707.157c-2.345.52-3.82 2.844-3.3 5.188l4.12 18.532c.522 2.344 2.845 3.82 5.19 3.3l.707-.157c2.344-.52 3.82-2.845 3.3-5.19zM450.85 123.103h-14.202c-2.2 0-3.985 1.784-3.985 3.986 0 2.2 1.784 3.984 3.985 3.984h14.2c2.202 0 3.986-1.784 3.986-3.985 0-2.203-1.782-3.987-3.985-3.987zM451.864 123.972c-1.64 0-2.97 1.33-2.97 2.97v17.827c0 1.64 1.33 2.97 2.97 2.97s2.97-1.33 2.97-2.97v-17.827c0-1.64-1.33-2.97-2.97-2.97zM431.214 132.31l-3.996-17.51c-.457-2.003-1.92-3.378-3.265-3.07-1.347.306-2.066 2.182-1.61 4.185l4 17.51c.456 2.004 1.917 3.378 3.263 3.07 1.346-.306 2.067-2.18 1.608-4.185zM445.053 132.378h-15.36c-1.48 0-2.683.94-2.683 2.102s1.2 2.1 2.682 2.1h15.36c1.48 0 2.682-.94 2.682-2.1s-1.2-2.102-2.68-2.102zM427.773 182.336H424.3l8.655-47.404 3.475.643zM431.942 148.342h25.837v3.534H431.94zM422.09 154.453h7.773v2.12h-7.773zM420.676 164.936h7.774v2.12h-7.774zM418.557 174.947h7.774v2.12h-7.773z" fill="#93CC76"/><text x="410.167" y="203" font-size="2" font-weight="bold" font-family="Helvetica Neue, Helvetica, Arial-Unicode, Arial, Sans-serif">Created by Kevin Zittle</text><text x="410.167" y="205" font-size="2" font-weight="bold" font-family="Helvetica Neue, Helvetica, Arial-Unicode, Arial, Sans-serif">from the Noun Project</text></svg>